<svg width="145" height="31" viewBox="0 0 145 31" fill="none" xmlns="http://www.w3.org/2000/svg">
<rect x="1.5" y="1.5" width="11" height="11" rx="3.5" stroke="#344966" stroke-width="3"/>
<rect x="1.5" y="17.5" width="11" height="11" rx="3.5" stroke="#344966" stroke-width="3"/>
<rect x="17.5" y="17.5" width="11" height="11" rx="3.5" stroke="#344966" stroke-width="3"/>
<path d="M27.6361 3.8349C27.736 4.00756 27.7885 4.2035 27.7885 4.40297C27.7885 4.60243 27.736 4.79837 27.6361 4.97104C27.5801 5.0683 27.4711 5.19208 26.9302 5.73436L22.0554 10.6105L22.054 10.609C21.7651 10.8978 21.3717 11.0835 20.8117 11.2264C20.5317 11.2972 20.2325 11.3532 19.8995 11.4106C19.8345 11.422 19.7676 11.4335 19.6992 11.4453C19.4313 11.4913 19.1414 11.5411 18.8609 11.6021L18.8606 11.6007C18.6299 11.6505 18.4412 11.691 18.2779 11.7222C18.3091 11.5588 18.3495 11.3702 18.3993 11.1395C18.4593 10.8515 18.5106 10.5556 18.5577 10.283C18.5685 10.2209 18.579 10.16 18.5894 10.1006C18.6469 9.76759 18.7029 9.46697 18.7736 9.18699C18.9166 8.62703 19.1023 8.23505 19.3911 7.94623M27.6361 3.8349L29.5518 2.73118C29.8454 3.23969 30 3.81652 30 4.4037C30 4.99089 29.8469 5.56772 29.5533 6.07623C29.3334 6.45762 28.9923 6.79776 28.5943 7.19451C28.5605 7.22828 28.5262 7.26246 28.4916 7.29711L28.4938 7.29932L23.6175 12.1725C22.9308 12.8577 22.1026 13.1775 21.3599 13.3676C20.9885 13.4634 20.6157 13.5297 20.2767 13.5886C20.2254 13.5975 20.175 13.6061 20.1254 13.6146C19.8368 13.664 19.5774 13.7084 19.3233 13.7625C19.3083 13.7657 19.2933 13.769 19.2782 13.7722C18.82 13.8707 18.3604 13.9696 17.9823 13.9939C17.5711 14.0204 16.9743 13.9791 16.4983 13.5017C16.0209 13.0257 15.9796 12.4304 16.0061 12.0178C16.0304 11.6397 16.1293 11.18 16.2278 10.7219C16.231 10.7068 16.2343 10.6918 16.2375 10.6768C16.2924 10.42 16.3374 10.1566 16.3878 9.86149C16.3955 9.81623 16.4034 9.77022 16.4114 9.72338C16.4703 9.38593 16.5367 9.01163 16.6324 8.64029C16.8225 7.8976 17.1423 7.06944 17.829 6.38421L19.3911 7.94623M27.6361 3.8349L29.5533 2.7297C29.3277 2.33973 28.9744 1.98925 28.563 1.58122C28.5391 1.55753 28.5151 1.53366 28.4908 1.50957C28.464 1.48263 28.4374 1.45592 28.4111 1.42946C28.0053 1.02168 27.6581 0.672755 27.2706 0.448579C26.7619 0.154715 26.1848 0 25.5973 0C25.0098 0 24.4327 0.154715 23.924 0.448579C23.5365 0.672752 23.1893 1.02167 22.7836 1.42945C22.7573 1.45591 22.7307 1.48262 22.7038 1.50957L17.829 6.38127L19.3911 7.94623M27.6361 3.8349C27.5801 3.73764 27.4696 3.61386 26.9288 3.07305C26.3865 2.53224 26.2627 2.42025 26.1654 2.36425C25.9929 2.26466 25.7958 2.21223 25.5966 2.21223C25.3974 2.21223 25.2017 2.26466 25.0292 2.36425C24.932 2.42025 24.8067 2.53077 24.2659 3.07158L19.3911 7.94623M19.0934 12.6824L18.8621 11.6007M17.3192 10.9081L18.4008 11.1395M18.6115 7.16522L17.8305 6.38421M22.8365 11.39L23.6175 12.171M28.5954 3.2823L29.5533 2.7297M27.7113 6.51537L26.9302 5.73436M28.5954 5.52364L29.5533 6.07623M26.7195 1.40641L27.2721 0.448579M23.4849 2.29057L24.2659 3.07158M24.4781 1.40641L23.9255 0.448579" fill="#6D9BAB"/>
<path d="M27.6361 3.8349C27.736 4.00756 27.7885 4.2035 27.7885 4.40297C27.7885 4.60243 27.736 4.79837 27.6361 4.97104C27.5801 5.0683 27.4711 5.19208 26.9302 5.73436L22.0554 10.6105L22.054 10.609C21.7651 10.8978 21.3717 11.0835 20.8117 11.2264C20.5317 11.2972 20.2325 11.3532 19.8995 11.4106C19.8345 11.422 19.7676 11.4335 19.6992 11.4453C19.4313 11.4913 19.1414 11.5411 18.8609 11.6021L18.8606 11.6007C18.6299 11.6505 18.4412 11.691 18.2779 11.7222C18.3091 11.5588 18.3495 11.3702 18.3993 11.1395C18.4593 10.8515 18.5106 10.5556 18.5577 10.283C18.5685 10.2209 18.579 10.16 18.5894 10.1006C18.6469 9.76759 18.7029 9.46697 18.7736 9.18699C18.9166 8.62703 19.1023 8.23505 19.3911 7.94623M27.6361 3.8349L29.5518 2.73118C29.8454 3.23969 30 3.81652 30 4.4037C30 4.99089 29.8469 5.56772 29.5533 6.07623C29.3334 6.45762 28.9923 6.79776 28.5943 7.19451C28.5605 7.22828 28.5262 7.26246 28.4916 7.29711L28.4938 7.29932L23.6175 12.1725C22.9308 12.8577 22.1026 13.1775 21.3599 13.3676C20.9885 13.4634 20.6157 13.5297 20.2767 13.5886C20.2254 13.5975 20.175 13.6061 20.1254 13.6146C19.8368 13.664 19.5774 13.7084 19.3233 13.7625C19.3083 13.7657 19.2933 13.769 19.2782 13.7722C18.82 13.8707 18.3604 13.9696 17.9823 13.9939C17.5711 14.0204 16.9743 13.9791 16.4983 13.5017C16.0209 13.0257 15.9796 12.4304 16.0061 12.0178C16.0304 11.6397 16.1293 11.18 16.2278 10.7219C16.231 10.7068 16.2343 10.6918 16.2375 10.6768C16.2924 10.42 16.3374 10.1566 16.3878 9.86149C16.3955 9.81623 16.4034 9.77022 16.4114 9.72338C16.4703 9.38593 16.5367 9.01163 16.6324 8.64029C16.8225 7.8976 17.1423 7.06944 17.829 6.38421L19.3911 7.94623M27.6361 3.8349L29.5533 2.7297C29.3277 2.33973 28.9744 1.98925 28.563 1.58122C28.5391 1.55753 28.5151 1.53366 28.4908 1.50957C28.464 1.48263 28.4374 1.45592 28.4111 1.42946C28.0053 1.02168 27.6581 0.672755 27.2706 0.448579C26.7619 0.154715 26.1848 0 25.5973 0C25.0098 0 24.4327 0.154715 23.924 0.448579C23.5365 0.672752 23.1893 1.02167 22.7836 1.42945C22.7573 1.45591 22.7307 1.48262 22.7038 1.50957L17.829 6.38127L19.3911 7.94623M27.6361 3.8349C27.5801 3.73764 27.4696 3.61386 26.9288 3.07305C26.3865 2.53224 26.2627 2.42025 26.1654 2.36425C25.9929 2.26466 25.7958 2.21223 25.5966 2.21223C25.3974 2.21223 25.2017 2.26466 25.0292 2.36425C24.932 2.42025 24.8067 2.53077 24.2659 3.07158L19.3911 7.94623M19.0934 12.6824L18.8621 11.6007M17.3192 10.9081L18.4008 11.1395M18.6115 7.16522L17.8305 6.38421M22.8365 11.39L23.6175 12.171M28.5954 3.2823L29.5533 2.7297M27.7113 6.51537L26.9302 5.73436M28.5954 5.52364L29.5533 6.07623M26.7195 1.40641L27.2721 0.448579M23.4849 2.29057L24.2659 3.07158M24.4781 1.40641L23.9255 0.448579" stroke="#6D9BAB"/>
<path d="M47.8672 7.80469H46.707H46.3906C45.5234 7.80469 45.0898 7.42969 45.0898 6.67969C45.0898 6.20312 45.2656 5.80469 45.6172 5.48438C45.9766 5.16406 46.4141 5.00391 46.9297 5.00391H47.2461H50.6797C52.9766 5.00391 54.7383 5.55078 55.9648 6.64453C57.1914 7.73828 57.8047 9.3125 57.8047 11.3672C57.8047 14.5 56.7617 17.3711 54.6758 19.9805C53.4961 21.4492 52.1602 22.5195 50.668 23.1914C49.1836 23.8633 47.4023 24.1992 45.3242 24.1992H44.5039L44.3633 24.5273C43.8164 25.7461 43.3867 26.6016 43.0742 27.0938C42.7617 27.5859 42.3555 28.0625 41.8555 28.5234C40.5508 29.7188 39.0547 30.3164 37.3672 30.3164C35.9766 30.3164 34.8359 29.9023 33.9453 29.0742C33.0469 28.2539 32.5977 27.207 32.5977 25.9336C32.5977 25.1523 32.7891 24.418 33.1719 23.7305C33.5547 23.0508 34.0742 22.5195 34.7305 22.1367C35.582 21.6445 36.7344 21.3984 38.1875 21.3984H42.3477L47.8672 7.80469ZM45.6406 21.3984H46.1094C48.5312 21.3984 50.5586 20.3242 52.1914 18.1758C52.9805 17.1445 53.6016 16.0273 54.0547 14.8242C54.5156 13.6211 54.7461 12.5078 54.7461 11.4844C54.7461 10.3438 54.4258 9.44531 53.7852 8.78906C53.1445 8.13281 52.2734 7.80469 51.1719 7.80469L45.6406 21.3984ZM41.2109 24.1992H38.1055C36.5742 24.1992 35.8086 24.7422 35.8086 25.8281C35.8086 26.2734 35.9766 26.6484 36.3125 26.9531C36.6484 27.2578 37.0586 27.4102 37.543 27.4102C38.2617 27.4102 38.9453 27.125 39.5938 26.5547C40.2422 25.9922 40.7812 25.207 41.2109 24.1992ZM66.043 18.4453H67.332C68.3164 18.4453 68.8086 18.7891 68.8086 19.4766C68.8086 19.9531 68.6328 20.3281 68.2812 20.6016C67.9297 20.8672 67.4453 21 66.8281 21H65.3281C64.6562 21 64.1992 20.7383 63.957 20.2148C63.3711 20.7383 62.8047 21 62.2578 21H60.9219C60.0625 21 59.3672 20.6953 58.8359 20.0859C58.3125 19.4688 58.0508 18.6641 58.0508 17.6719C58.0508 16.1719 58.5664 14.832 59.5977 13.6523C60.6367 12.4648 61.8086 11.8711 63.1133 11.8711C64.1133 11.8711 64.8438 12.2188 65.3047 12.9141C65.6953 12.3281 66.207 12.0352 66.8398 12.0352C67.1836 12.0352 67.4688 12.1445 67.6953 12.3633C67.9297 12.582 68.0469 12.8516 68.0469 13.1719C68.0469 13.3906 67.9844 13.6523 67.8594 13.957L67.7305 14.2734L66.043 18.4453ZM61.7891 18.5039H62.082C62.7227 18.5039 63.1484 18.2422 63.3594 17.7188L64.1797 15.6914C64.2891 15.4258 64.3438 15.2031 64.3438 15.0234C64.3438 14.8125 64.2383 14.6289 64.0273 14.4727C63.8242 14.3164 63.5781 14.2383 63.2891 14.2383C62.7188 14.2383 62.1641 14.5703 61.625 15.2344C61.0859 15.8984 60.8164 16.5859 60.8164 17.2969C60.8164 18.1016 61.1406 18.5039 61.7891 18.5039ZM73.168 15.2344L72.9453 15.7734C72.6016 16.5469 72.1133 16.9336 71.4805 16.9336C71.1602 16.9336 70.8711 16.8242 70.6133 16.6055C70.3633 16.3789 70.2383 16.1211 70.2383 15.832C70.2383 15.5586 70.3516 15.1953 70.5781 14.7422L72.1367 11.5781C72.5195 10.8203 72.9961 10.4414 73.5664 10.4414C73.8711 10.4414 74.1328 10.543 74.3516 10.7461C74.5703 10.9414 74.6797 11.1758 74.6797 11.4492C74.6797 11.5195 74.6562 11.6719 74.6094 11.9062C74.5781 12.0781 74.5625 12.2305 74.5625 12.3633C74.5625 12.8555 74.7461 13.3594 75.1133 13.875L75.7812 14.8008C76.4609 15.7461 76.8008 16.6602 76.8008 17.543C76.8008 18.5273 76.4336 19.3516 75.6992 20.0156C74.9648 20.6719 74.0508 21 72.957 21H70.5078C69.5156 21 69.0195 20.6562 69.0195 19.9688C69.0195 19.4922 69.1953 19.1211 69.5469 18.8555C69.8984 18.582 70.3828 18.4453 71 18.4453H72.3594C73.4453 18.4453 73.9883 18.0508 73.9883 17.2617C73.9883 16.9727 73.8867 16.6328 73.6836 16.2422L73.168 15.2344ZM83.293 12.5391C84.1133 12.0938 84.7891 11.8711 85.3203 11.8711C86.0703 11.8711 86.6836 12.082 87.1602 12.5039C87.6445 12.918 87.8867 13.4492 87.8867 14.0977C87.8867 14.4883 87.793 14.9141 87.6055 15.375L86.375 18.4453H87.7227C88.707 18.4453 89.1992 18.793 89.1992 19.4883C89.1992 19.9648 89.0234 20.3359 88.6719 20.6016C88.3281 20.8672 87.8438 21 87.2188 21H84.8633C84.3633 21 83.9414 20.8594 83.5977 20.5781C83.2617 20.2891 83.0938 19.9375 83.0938 19.5234C83.0938 19.2422 83.1836 18.8828 83.3633 18.4453L84.4414 15.7969C84.5742 15.4609 84.6406 15.207 84.6406 15.0352C84.6406 14.5898 84.3438 14.3672 83.75 14.3672C82.9531 14.3672 82.2812 15.0469 81.7344 16.4062L80.4219 19.6289C80.0078 20.6523 79.3945 21.1641 78.582 21.1641C78.2617 21.1641 77.9883 21.0625 77.7617 20.8594C77.5352 20.6562 77.4219 20.4102 77.4219 20.1211C77.4219 19.9023 77.4805 19.6445 77.5977 19.3477L77.7266 19.0312L82.8242 6.45703C83.2695 5.37891 83.8789 4.83984 84.6523 4.83984C84.9727 4.83984 85.2461 4.94922 85.4727 5.16797C85.707 5.37891 85.8242 5.63672 85.8242 5.94141C85.8242 6.19141 85.7227 6.5625 85.5195 7.05469L83.293 12.5391ZM95.4688 12.0352C95.8203 11.9258 96.1328 11.8711 96.4062 11.8711C97.3125 11.8711 98.0469 12.2109 98.6094 12.8906C99.1719 13.5625 99.4531 14.4375 99.4531 15.5156C99.4531 17.6016 98.6484 19.2266 97.0391 20.3906C96.4766 20.7969 95.8906 21 95.2812 21H94.168C93.3945 21 92.7344 20.7227 92.1875 20.168C91.8594 20.7227 91.3438 21 90.6406 21C90.3047 21 90.0195 20.8906 89.7852 20.6719C89.5508 20.4531 89.4336 20.1875 89.4336 19.875C89.4336 19.6406 89.4961 19.3711 89.6211 19.0664L89.75 18.75L94.6602 6.64453L94.7891 6.31641C95.1562 5.44141 95.7227 5.00391 96.4883 5.00391C96.8398 5.00391 97.1328 5.11328 97.3672 5.33203C97.6094 5.54297 97.7305 5.80469 97.7305 6.11719C97.7305 6.35938 97.668 6.62891 97.543 6.92578L97.4141 7.25391L95.4688 12.0352ZM93.1367 17.7773C93.5273 18.2773 93.9844 18.5273 94.5078 18.5273C94.8828 18.5273 95.1992 18.4219 95.457 18.2109C95.8164 17.9219 96.1289 17.4922 96.3945 16.9219C96.668 16.3516 96.8047 15.8398 96.8047 15.3867C96.8047 15.0352 96.7031 14.75 96.5 14.5312C96.2969 14.3047 96.0312 14.1914 95.7031 14.1914C94.9609 14.1914 94.3672 14.7422 93.9219 15.8438L93.1367 17.7773ZM105.512 11.8711C106.645 11.8711 107.574 12.2305 108.301 12.9492C109.035 13.668 109.402 14.582 109.402 15.6914C109.402 16.5273 109.211 17.3594 108.828 18.1875C108.445 19.0078 107.949 19.6641 107.34 20.1562C106.934 20.4766 106.512 20.6992 106.074 20.8242C105.645 20.9414 105.039 21 104.258 21C102.984 21 102.125 20.8477 101.68 20.543C100.633 19.8242 100.109 18.7617 100.109 17.3555C100.109 15.8711 100.645 14.5859 101.715 13.5C102.785 12.4141 104.051 11.8711 105.512 11.8711ZM105.23 14.3672C104.652 14.3672 104.125 14.6523 103.648 15.2227C103.172 15.793 102.934 16.4219 102.934 17.1094C102.934 18.0156 103.441 18.4688 104.457 18.4688C105.051 18.4688 105.508 18.2852 105.828 17.918C106.359 17.3164 106.625 16.6289 106.625 15.8555C106.625 15.4102 106.496 15.0508 106.238 14.7773C105.98 14.5039 105.645 14.3672 105.23 14.3672ZM118.027 18.4453H119.316C120.301 18.4453 120.793 18.7891 120.793 19.4766C120.793 19.9531 120.617 20.3281 120.266 20.6016C119.914 20.8672 119.43 21 118.812 21H117.312C116.641 21 116.184 20.7383 115.941 20.2148C115.355 20.7383 114.789 21 114.242 21H112.906C112.047 21 111.352 20.6953 110.82 20.0859C110.297 19.4688 110.035 18.6641 110.035 17.6719C110.035 16.1719 110.551 14.832 111.582 13.6523C112.621 12.4648 113.793 11.8711 115.098 11.8711C116.098 11.8711 116.828 12.2188 117.289 12.9141C117.68 12.3281 118.191 12.0352 118.824 12.0352C119.168 12.0352 119.453 12.1445 119.68 12.3633C119.914 12.582 120.031 12.8516 120.031 13.1719C120.031 13.3906 119.969 13.6523 119.844 13.957L119.715 14.2734L118.027 18.4453ZM113.773 18.5039H114.066C114.707 18.5039 115.133 18.2422 115.344 17.7188L116.164 15.6914C116.273 15.4258 116.328 15.2031 116.328 15.0234C116.328 14.8125 116.223 14.6289 116.012 14.4727C115.809 14.3164 115.562 14.2383 115.273 14.2383C114.703 14.2383 114.148 14.5703 113.609 15.2344C113.07 15.8984 112.801 16.5859 112.801 17.2969C112.801 18.1016 113.125 18.5039 113.773 18.5039ZM124.18 14.6016L123.781 15.5859C123.422 16.4609 122.953 16.8984 122.375 16.8984C122.023 16.8984 121.73 16.793 121.496 16.582C121.262 16.3711 121.145 16.1094 121.145 15.7969C121.145 15.6172 121.23 15.3125 121.402 14.8828L122.727 11.6133C123.047 10.8242 123.5 10.4297 124.086 10.4297C124.664 10.4297 125.02 10.7031 125.152 11.25L125.246 11.6133C125.293 11.8008 125.363 11.918 125.457 11.9648C125.551 12.0117 125.781 12.0352 126.148 12.0352H128.891C129.914 12.0352 130.426 12.3945 130.426 13.1133C130.426 14.1055 129.777 14.6016 128.48 14.6016L128.352 14.7188C127.109 15.9062 126.488 16.8242 126.488 17.4727C126.488 18.1211 126.848 18.4453 127.566 18.4453H129.043C130.035 18.4453 130.531 18.7891 130.531 19.4766C130.531 19.9609 130.355 20.3359 130.004 20.6016C129.66 20.8672 129.176 21 128.551 21H126.254C125.473 21 124.832 20.7305 124.332 20.1914C123.84 19.6523 123.594 18.9531 123.594 18.0938C123.594 17.5469 123.727 17.0156 123.992 16.5C124.258 15.9844 124.727 15.3516 125.398 14.6016H124.18ZM139.098 18.4453H140.434C141.426 18.4453 141.922 18.793 141.922 19.4883C141.922 19.9648 141.746 20.3359 141.395 20.6016C141.043 20.8672 140.559 21 139.941 21H138.359C137.75 21 137.305 20.75 137.023 20.25C136.523 20.75 135.988 21 135.418 21H133.93C133.062 21 132.367 20.7031 131.844 20.1094C131.328 19.5156 131.07 18.7266 131.07 17.7422C131.07 16.2344 131.582 14.8789 132.605 13.6758C133.637 12.4727 134.793 11.8711 136.074 11.8711C137.02 11.8711 137.773 12.2109 138.336 12.8906L140.949 6.48047C141.395 5.38672 142.016 4.83984 142.812 4.83984C143.148 4.83984 143.434 4.94922 143.668 5.16797C143.902 5.37891 144.02 5.64062 144.02 5.95312C144.02 6.19531 143.961 6.46875 143.844 6.77344L143.703 7.08984L139.098 18.4453ZM134.809 18.5039H135.254C135.793 18.5039 136.148 18.2891 136.32 17.8594L137.199 15.6914C137.309 15.4258 137.363 15.2227 137.363 15.082C137.363 14.8477 137.262 14.6484 137.059 14.4844C136.863 14.3203 136.617 14.2383 136.32 14.2383C135.711 14.2383 135.141 14.5781 134.609 15.2578C134.086 15.9375 133.824 16.6719 133.824 17.4609C133.824 18.1562 134.152 18.5039 134.809 18.5039Z" fill="#6D9BAB"/>
</svg>
